<?xml version="1.0" encoding="utf-8"?>
<!-- Generator: Adobe Illustrator 25.4.1, SVG Export Plug-In . SVG Version: 6.00 Build 0)  -->
<svg version="1.1" id="Capa_1" xmlns="http://www.w3.org/2000/svg" xmlns:xlink="http://www.w3.org/1999/xlink" x="0px" y="0px"
	 viewBox="0 0 30 20" style="enable-background:new 0 0 30 20;" xml:space="preserve">
<style type="text/css">
	.st0{fill:#0D2334;}
	.st1{fill:#11465E;}
	.st2{fill:#FFFFFF;}
	.st3{fill:none;stroke:#11465E;stroke-width:0.25;stroke-miterlimit:10;}
	.st4{fill:#F9B13F;}
	.st5{fill:#2EABE2;}
	.st6{fill:#EA4F60;}
</style>
<path class="st0" d="M6.91,10.63c0-0.09,0-0.18,0-0.27c0-0.08,0.03-0.14,0.1-0.18c0.45-0.25,0.89-0.5,1.34-0.75
	c0.07-0.04,0.14-0.04,0.21,0c0.46,0.26,0.91,0.52,1.37,0.78c0.08,0.04,0.11,0.1,0.11,0.19c0,0.09,0,0.19,0,0.28
	c0,0.07-0.02,0.09-0.08,0.05C9.5,10.47,9.05,10.21,8.6,9.95C8.51,9.9,8.43,9.89,8.34,9.94c-0.28,0.17-0.57,0.33-0.86,0.5
	c-0.19,0.11-0.18,0.28,0.01,0.39c0.43,0.25,0.87,0.51,1.3,0.76c0.02,0.01,0.05,0.03,0.07,0.04c0.04,0.03,0.04,0.05,0,0.08
	c-0.1,0.06-0.2,0.12-0.3,0.17c-0.07,0.04-0.13,0.02-0.19-0.02c-0.43-0.25-0.85-0.5-1.28-0.74c-0.14-0.08-0.2-0.17-0.18-0.32
	C6.92,10.74,6.91,10.68,6.91,10.63z"/>
<path class="st0" d="M10.04,11.68c0,0.09,0,0.18,0,0.27c0,0.07-0.03,0.13-0.09,0.17c-0.46,0.26-0.91,0.51-1.37,0.77
	c-0.06,0.03-0.12,0.03-0.18,0c-0.46-0.27-0.93-0.53-1.39-0.8c-0.07-0.04-0.1-0.1-0.1-0.17c0-0.09,0-0.19,0-0.28
	c0-0.09,0.02-0.1,0.1-0.05C7.37,11.79,7.72,12,8.08,12.2c0.1,0.06,0.19,0.11,0.29,0.17c0.08,0.05,0.15,0.05,0.23,0
	c0.29-0.17,0.58-0.33,0.86-0.5c0.19-0.11,0.18-0.29,0-0.39c-0.45-0.26-0.89-0.52-1.34-0.78c-0.08-0.05-0.08-0.07,0-0.12
	c0.08-0.05,0.16-0.09,0.24-0.14c0.06-0.04,0.13-0.04,0.19,0c0.46,0.27,0.93,0.54,1.39,0.8c0.06,0.04,0.09,0.09,0.09,0.17
	C10.04,11.5,10.04,11.59,10.04,11.68z"/>
<g>
	<g>
		<path class="st1" d="M13.27,12.2v0.36h-2.21c-0.24,0-0.41-0.03-0.52-0.08c-0.1-0.05-0.15-0.13-0.15-0.23v-1.5
			c0-0.1,0.05-0.17,0.15-0.23s0.27-0.08,0.52-0.08h2.21v0.36h-2.1c-0.03,0-0.05,0-0.07,0.01c-0.02,0.01-0.03,0.01-0.03,0.02v0.46
			h1.59v0.35h-1.59v0.53c0,0.01,0.01,0.02,0.03,0.02c0.02,0,0.04,0.01,0.07,0.01H13.27z"/>
		<path class="st1" d="M13.79,10.52c0.1-0.05,0.28-0.08,0.52-0.08h1.54c0.24,0,0.42,0.03,0.52,0.08s0.15,0.13,0.15,0.23v0.58
			c0,0.09-0.04,0.16-0.11,0.21c-0.07,0.05-0.19,0.08-0.36,0.09l0.6,0.92h-0.71l-0.61-0.92h-1.01v0.92h-0.69v-1.81
			C13.63,10.65,13.68,10.57,13.79,10.52z M15.83,11.25v-0.43c0-0.02-0.03-0.03-0.1-0.03h-1.31c-0.07,0-0.1,0.01-0.1,0.03v0.46h1.41
			C15.79,11.29,15.83,11.27,15.83,11.25z"/>
		<path class="st1" d="M17.45,10.44l0.75,1.6l0.78-1.6h0.67l-1.04,2.12H17.8l-1.03-2.12H17.45z"/>
		<path class="st1" d="M22.79,12.2v0.36h-2.21c-0.24,0-0.41-0.03-0.52-0.08c-0.1-0.05-0.15-0.13-0.15-0.23v-1.5
			c0-0.1,0.05-0.17,0.15-0.23c0.1-0.06,0.28-0.08,0.52-0.08h2.21v0.36h-2.1c-0.03,0-0.05,0-0.07,0.01
			c-0.02,0.01-0.03,0.01-0.03,0.02v0.46h1.59v0.35H20.6v0.53c0,0.01,0.01,0.02,0.03,0.02c0.02,0,0.04,0.01,0.07,0.01H22.79z"/>
		<path class="st1" d="M23.31,10.52c0.1-0.05,0.28-0.08,0.52-0.08h1.54c0.24,0,0.42,0.03,0.52,0.08s0.15,0.13,0.15,0.23v0.58
			c0,0.09-0.04,0.16-0.11,0.21c-0.07,0.05-0.19,0.08-0.36,0.09l0.6,0.92h-0.71l-0.61-0.92h-1.01v0.92h-0.69v-1.81
			C23.16,10.65,23.21,10.57,23.31,10.52z M25.35,11.25v-0.43c0-0.02-0.03-0.03-0.1-0.03h-1.31c-0.07,0-0.1,0.01-0.1,0.03v0.46h1.41
			C25.32,11.29,25.35,11.27,25.35,11.25z"/>
	</g>
</g>
<g>
	<g>
		<path class="st1" d="M14.53,14.81v-1.76h0.69v1.76h0.54c0.03,0,0.05,0,0.07-0.01c0.02-0.01,0.03-0.01,0.03-0.02v-1.73h0.69v1.81
			c0,0.1-0.05,0.18-0.15,0.23c-0.1,0.05-0.28,0.08-0.52,0.08h-1.99c-0.24,0-0.42-0.03-0.52-0.08c-0.1-0.05-0.15-0.13-0.15-0.23
			v-1.81h0.69v1.73c0,0.01,0.01,0.02,0.03,0.02c0.02,0,0.04,0.01,0.07,0.01H14.53z"/>
		<path class="st1" d="M19.79,14.81v0.36h-2.21c-0.24,0-0.41-0.03-0.52-0.08c-0.1-0.05-0.15-0.13-0.15-0.23v-1.5
			c0-0.1,0.05-0.17,0.15-0.23c0.1-0.05,0.28-0.08,0.52-0.08h2.21v0.36h-2.1c-0.03,0-0.05,0-0.07,0.01
			c-0.02,0.01-0.03,0.01-0.03,0.02v0.46h1.59v0.35h-1.59v0.53c0,0.01,0.01,0.02,0.03,0.02c0.02,0,0.04,0.01,0.07,0.01H19.79z"/>
		<path class="st1" d="M22.35,13.05c0.24,0,0.42,0.03,0.52,0.09c0.11,0.06,0.16,0.14,0.16,0.24v0.43c0,0.08-0.02,0.14-0.06,0.18
			c-0.04,0.04-0.08,0.08-0.12,0.1c0.05,0.04,0.09,0.09,0.12,0.15s0.05,0.12,0.05,0.18v0.43c0,0.1-0.05,0.18-0.16,0.24
			c-0.11,0.06-0.28,0.08-0.52,0.08h-2.2v-2.12H22.35z M22.34,13.86v-0.42c0-0.02-0.03-0.03-0.1-0.03h-1.41v0.49h1.41
			C22.31,13.9,22.34,13.88,22.34,13.86z M20.84,14.25v0.56h1.41c0.07,0,0.1-0.01,0.1-0.03v-0.49c0-0.02-0.03-0.04-0.1-0.04H20.84z"
			/>
	</g>
</g>
<rect x="24.1" y="3.89" class="st1" width="1.77" height="1.77"/>
<rect x="24.1" y="7.5" class="st1" width="2.61" height="2.61"/>
<rect x="26.72" y="10.11" class="st1" width="2.67" height="2.67"/>
<rect x="23.46" y="12.78" class="st1" width="3.26" height="3.22"/>
<rect x="22.29" y="5.66" class="st1" width="1.77" height="1.77"/>
<path class="st1" d="M2.03,9.92h3.1c0,0,0.07-0.01,0.07,0.08s0,1.92,0,1.92s0,0.06-0.06,0.06c-0.06,0-3.12,0-3.12,0
	s-0.08-0.02-0.08-0.08s0-1.91,0-1.91S1.97,9.92,2.03,9.92z"/>
<rect x="2.24" y="10.2" class="st2" width="2.7" height="1.51"/>
<path class="st1" d="M1.61,12.12h3.94c0,0-0.09,0.38-0.39,0.38c-0.3,0-3.09,0-3.09,0S1.71,12.5,1.61,12.12z"/>
<rect x="3.27" y="12.23" class="st2" width="0.62" height="0.16"/>
<circle class="st3" cx="3.6" cy="11.22" r="2.95"/>
<circle class="st4" cx="0.85" cy="10.67" r="0.35"/>
<circle class="st5" cx="5.61" cy="9.1" r="0.41"/>
<circle class="st6" cx="5.04" cy="13.78" r="0.33"/>
</svg>
