<?xml version="1.0" encoding="utf-8"?>
<!-- Generator: Adobe Illustrator 25.4.1, SVG Export Plug-In . SVG Version: 6.00 Build 0)  -->
<svg version="1.1" id="Capa_1" xmlns="http://www.w3.org/2000/svg" xmlns:xlink="http://www.w3.org/1999/xlink" x="0px" y="0px"
	 viewBox="0 0 30 20" style="enable-background:new 0 0 30 20;" xml:space="preserve">
<style type="text/css">
	.st0{fill:#0D2334;}
	.st1{fill:#11465E;}
	.st2{font-family:'ConcielianBold';}
	.st3{font-size:3.9317px;}
	.st4{fill:#FFFFFF;}
	.st5{fill:none;stroke:#11465E;stroke-width:0.25;stroke-miterlimit:10;}
	.st6{fill:#F9B13F;}
	.st7{fill:#2EABE2;}
	.st8{fill:#EA4F60;}
</style>
<path class="st0" d="M6.91,10.63c0-0.09,0-0.18,0-0.27c0-0.08,0.03-0.14,0.1-0.18c0.45-0.25,0.89-0.5,1.34-0.75
	c0.07-0.04,0.14-0.04,0.21,0c0.46,0.26,0.91,0.52,1.37,0.78c0.08,0.04,0.11,0.1,0.11,0.19c0,0.09,0,0.19,0,0.28
	c0,0.07-0.02,0.09-0.08,0.05C9.5,10.47,9.05,10.21,8.6,9.95C8.51,9.9,8.43,9.89,8.34,9.94c-0.28,0.17-0.57,0.33-0.86,0.5
	c-0.19,0.11-0.18,0.28,0.01,0.39c0.43,0.25,0.87,0.51,1.3,0.76c0.02,0.01,0.05,0.03,0.07,0.04c0.04,0.03,0.04,0.05,0,0.08
	c-0.1,0.06-0.2,0.12-0.3,0.17c-0.07,0.04-0.13,0.02-0.19-0.02c-0.43-0.25-0.85-0.5-1.28-0.74c-0.14-0.08-0.2-0.17-0.18-0.32
	C6.92,10.74,6.91,10.68,6.91,10.63z"/>
<path class="st0" d="M10.04,11.68c0,0.09,0,0.18,0,0.27c0,0.07-0.03,0.13-0.09,0.17c-0.46,0.26-0.91,0.51-1.37,0.77
	c-0.06,0.03-0.12,0.03-0.18,0c-0.46-0.27-0.93-0.53-1.39-0.8c-0.07-0.04-0.1-0.1-0.1-0.17c0-0.09,0-0.19,0-0.28
	c0-0.09,0.02-0.1,0.1-0.05C7.37,11.79,7.72,12,8.08,12.2c0.1,0.06,0.19,0.11,0.29,0.17c0.08,0.05,0.15,0.05,0.23,0
	c0.29-0.17,0.58-0.33,0.86-0.5c0.19-0.11,0.18-0.29,0-0.39c-0.45-0.26-0.89-0.52-1.34-0.78c-0.08-0.05-0.08-0.07,0-0.12
	c0.08-0.05,0.16-0.09,0.24-0.14c0.06-0.04,0.13-0.04,0.19,0c0.46,0.27,0.93,0.54,1.39,0.8c0.06,0.04,0.09,0.09,0.09,0.17
	C10.04,11.5,10.04,11.59,10.04,11.68z"/>
<g>
	<text transform="matrix(0.9032 0 0 1 10.1865 12.5547)" class="st1 st2 st3">ERVER</text>
</g>
<g>
	<text transform="matrix(0.9032 0 0 1 13.002 15.166)" class="st1 st2 st3">WEB</text>
</g>
<rect x="24.1" y="3.89" class="st1" width="1.77" height="1.77"/>
<rect x="24.1" y="7.5" class="st1" width="2.61" height="2.61"/>
<rect x="26.72" y="10.11" class="st1" width="2.67" height="2.67"/>
<rect x="23.46" y="12.78" class="st1" width="3.26" height="3.22"/>
<rect x="22.29" y="5.66" class="st1" width="1.77" height="1.77"/>
<path class="st1" d="M2.03,9.92h3.1c0,0,0.07-0.01,0.07,0.08s0,1.92,0,1.92s0,0.06-0.06,0.06c-0.06,0-3.12,0-3.12,0
	s-0.08-0.02-0.08-0.08s0-1.91,0-1.91S1.97,9.92,2.03,9.92z"/>
<rect x="2.24" y="10.2" class="st4" width="2.7" height="1.51"/>
<path class="st1" d="M1.61,12.12h3.94c0,0-0.09,0.38-0.39,0.38c-0.3,0-3.09,0-3.09,0S1.71,12.5,1.61,12.12z"/>
<rect x="3.27" y="12.23" class="st4" width="0.62" height="0.16"/>
<circle class="st5" cx="3.6" cy="11.22" r="2.95"/>
<circle class="st6" cx="0.85" cy="10.67" r="0.35"/>
<circle class="st7" cx="5.61" cy="9.1" r="0.41"/>
<circle class="st8" cx="5.04" cy="13.78" r="0.33"/>
</svg>
